<svg width="24.000000" height="24.000000" viewBox="0 0 24 24" fill="none" xmlns="http://www.w3.org/2000/svg" xmlns:xlink="http://www.w3.org/1999/xlink">
	<desc>
			Created with Pixso.
	</desc>
	<defs>
		<clipPath id="clip259_38796">
			<rect id="Size=24, Type=Shown" width="24.000000" height="24.000000" fill="white" fill-opacity="0"/>
		</clipPath>
	</defs>
	<rect id="Size=24, Type=Shown" width="24.000000" height="24.000000" fill="#FFFFFF" fill-opacity="0"/>
	<g clip-path="url(#clip259_38796)">
		<path id="Vector" d="M15.0004 12.0005C15.0004 12.7959 14.6843 13.5591 14.1217 14.1216C13.5591 14.6846 12.796 15.0005 12.0004 15.0005C11.2047 15.0005 10.4417 14.6846 9.87903 14.1216C9.31641 13.5591 9.00037 12.7959 9.00037 12.0005C9.00037 11.2051 9.31641 10.4419 9.87903 9.87939C10.4417 9.31641 11.2047 9.00049 12.0004 9.00049C12.796 9.00049 13.5591 9.31641 14.1217 9.87939C14.6843 10.4419 15.0004 11.2051 15.0004 12.0005Z" fill="#1F1F26" fill-opacity="1.000000" fill-rule="nonzero"/>
		<path id="Vector" d="M21.8942 11.5542C19.7362 7.23682 15.9042 5.00098 12.0002 5.00098C8.09717 5.00098 4.26416 7.23682 2.1062 11.5542C2.03687 11.6929 2.00073 11.8457 2.00073 12.001C2.00073 12.1562 2.03687 12.3091 2.1062 12.4478C4.26416 16.7651 8.09619 19.001 12.0002 19.001C15.9032 19.001 19.7362 16.7651 21.8942 12.4478C21.9635 12.3091 21.9996 12.1562 21.9996 12.001C21.9996 11.8457 21.9635 11.6929 21.8942 11.5542ZM12.0002 17.001C9.03125 17.001 5.99817 15.3809 4.13025 12.001C5.99817 8.62109 9.03015 7.00098 12.0002 7.00098C14.9692 7.00098 18.0022 8.62109 19.8702 12.001C18.0022 15.3809 14.9692 17.001 12.0002 17.001Z" fill="#1F1F26" fill-opacity="1.000000" fill-rule="nonzero"/>
	</g>
</svg>
