<svg width="24.000000" height="24.000000" viewBox="0 0 24 24" fill="none" xmlns="http://www.w3.org/2000/svg" xmlns:xlink="http://www.w3.org/1999/xlink">
	<desc>
			Created with Pixso.
	</desc>
	<defs>
		<clipPath id="clip11_4961">
			<rect id="Icon / Eye" width="24.000000" height="24.000000" fill="white" fill-opacity="0"/>
		</clipPath>
	</defs>
	<rect id="Icon / Eye" width="24.000000" height="24.000000" fill="#FFFFFF" fill-opacity="0"/>
	<g clip-path="url(#clip11_4961)">
		<path id="Vector" d="M4.70605 3.29248C4.51758 3.11035 4.26562 3.00952 4.00293 3.01172C3.74121 3.01392 3.49023 3.11914 3.30469 3.30469C3.11914 3.48999 3.01367 3.74072 3.01172 4.00293C3.00977 4.26514 3.11035 4.51782 3.29199 4.70654L5.7168 7.13037C4.28613 8.20654 3.03809 9.68433 2.10547 11.5525C2.03613 11.6912 2 11.8442 2 11.9995C2 12.1545 2.03613 12.3076 2.10547 12.4465C4.26367 16.7634 8.0957 18.9995 11.999 18.9995C13.5547 18.9995 15.0996 18.6445 16.5293 17.9443L19.292 20.7065C19.4814 20.8887 19.7334 20.9895 19.9961 20.9871C20.2578 20.9849 20.5088 20.8796 20.6943 20.6943C20.8799 20.5088 20.9844 20.2581 20.9873 19.9958C20.9893 19.7336 20.8887 19.481 20.7061 19.2925L4.70605 3.29248ZM15.0137 16.4275C14.0332 16.8105 13.0137 16.9995 11.999 16.9995C9.03027 16.9995 5.99707 15.3794 4.12988 11.9995C4.94629 10.5205 5.9873 9.37939 7.14746 8.5625L9.29102 10.7065C9.02344 11.2664 8.93555 11.8958 9.04102 12.5076C9.14551 13.1194 9.4375 13.6836 9.87598 14.1226C10.3154 14.5615 10.8799 14.8535 11.4912 14.9583C12.1035 15.063 12.7324 14.9753 13.292 14.7075L15.0127 16.4275L15.0137 16.4275ZM18.5518 13.8955C19.0342 13.3394 19.4775 12.7085 19.8691 11.9995C18.002 8.61938 14.9697 6.99951 11.999 6.99951C11.8877 6.99951 11.7754 7.00146 11.6631 7.00635L9.87891 5.22241C10.5762 5.07422 11.2871 4.99951 11.999 4.99951C15.9023 4.99951 19.7354 7.23535 21.8936 11.5525C21.9629 11.6912 21.999 11.8442 21.999 11.9995C21.999 12.1545 21.9629 12.3076 21.8936 12.4465C21.3809 13.4822 20.7334 14.4456 19.9688 15.3115L18.5518 13.8955Z" fill="#1F1F26" fill-opacity="1.000000" fill-rule="nonzero"/>
		<path id="Vector" d="M4.00293 3.01172C3.74121 3.01392 3.49023 3.11914 3.30469 3.30469C3.11914 3.48999 3.01367 3.74072 3.01172 4.00293C3.00977 4.26514 3.11035 4.51782 3.29199 4.70654L5.7168 7.13037C4.28613 8.20654 3.03809 9.68433 2.10547 11.5525C2.03613 11.6912 2 11.8442 2 11.9995C2 12.1545 2.03613 12.3076 2.10547 12.4465C4.26367 16.7634 8.0957 18.9995 11.999 18.9995C13.5547 18.9995 15.0996 18.6445 16.5293 17.9443L19.292 20.7065C19.4814 20.8887 19.7334 20.9895 19.9961 20.9871C20.2578 20.9849 20.5088 20.8796 20.6943 20.6943C20.8799 20.5088 20.9844 20.2581 20.9873 19.9958C20.9893 19.7336 20.8887 19.481 20.7061 19.2925L4.70605 3.29248C4.51758 3.11035 4.26562 3.00952 4.00293 3.01172ZM11.999 16.9995C9.03027 16.9995 5.99707 15.3794 4.12988 11.9995C4.94629 10.5205 5.9873 9.37939 7.14746 8.5625L9.29102 10.7065C9.02344 11.2664 8.93555 11.8958 9.04102 12.5076C9.14551 13.1194 9.4375 13.6836 9.87598 14.1226C10.3154 14.5615 10.8799 14.8535 11.4912 14.9583C12.1035 15.063 12.7324 14.9753 13.292 14.7075L15.0127 16.4275L15.0137 16.4275C14.0332 16.8105 13.0137 16.9995 11.999 16.9995ZM19.8691 11.9995C18.002 8.61938 14.9697 6.99951 11.999 6.99951C11.8877 6.99951 11.7754 7.00146 11.6631 7.00635L9.87891 5.22241C10.5762 5.07422 11.2871 4.99951 11.999 4.99951C15.9023 4.99951 19.7354 7.23535 21.8936 11.5525C21.9629 11.6912 21.999 11.8442 21.999 11.9995C21.999 12.1545 21.9629 12.3076 21.8936 12.4465C21.3809 13.4822 20.7334 14.4456 19.9688 15.3115L18.5518 13.8955C19.0342 13.3394 19.4775 12.7085 19.8691 11.9995Z" stroke="#1F1F26" stroke-opacity="1.000000" stroke-width="1.000000"/>
	</g>
</svg>
