<svg width="35.997070" height="30.000000" viewBox="0 0 35.9971 30" fill="currentColor" xmlns="http://www.w3.org/2000/svg" xmlns:xlink="http://www.w3.org/1999/xlink">

	<path id="Vector" d="M29.7246 20.9934C29.0312 19.7983 27.999 16.417 27.999 12.0005C27.999 9.34814 26.9463 6.80444 25.0703 4.92896C23.1953 3.05371 20.6514 2 17.999 2C15.3467 2 12.8027 3.05371 10.9277 4.92896C9.05273 6.80444 7.99902 9.34814 7.99902 12.0005C7.99902 16.4182 6.96582 19.7983 6.27246 20.9934C6.09473 21.2971 6.00098 21.6423 6 21.9939C5.99902 22.3457 6.09082 22.6914 6.26562 22.9966C6.44043 23.3015 6.69336 23.5549 6.99707 23.7314C7.30176 23.9077 7.64648 24.0007 7.99902 24.001L13.1006 24.001C13.3311 25.1299 13.9443 26.1445 14.8369 26.8733C15.7295 27.6021 16.8467 28 17.999 28C19.1514 28 20.2686 27.6021 21.1611 26.8733C22.0537 26.1445 22.667 25.1299 22.8984 24.001L27.999 24.001C28.3516 24.0005 28.6963 23.9072 29 23.731C29.3047 23.5544 29.5566 23.301 29.7314 22.9961C29.9062 22.6909 29.998 22.3452 29.9971 21.9937C29.9961 21.6421 29.9014 21.2971 29.7246 20.9934ZM17.999 26.001C17.3789 26.0007 16.7734 25.8083 16.2676 25.4502C15.7607 25.092 15.3779 24.5857 15.1719 24.001L20.8271 24.001C20.6201 24.5857 20.2373 25.092 19.7305 25.4502C19.2246 25.8083 18.6191 26.0007 17.999 26.001ZM7.99902 22.001C8.96094 20.3457 9.99902 16.5107 9.99902 12.0005C9.99902 9.87866 10.8418 7.84375 12.3418 6.34326C13.8428 4.84302 15.877 4 17.999 4C20.1211 4 22.1562 4.84302 23.6562 6.34326C25.1562 7.84375 25.999 9.87866 25.999 12.0005C25.999 16.5068 27.0342 20.342 27.999 22.001L7.99902 22.001Z" fill-opacity="1.000000" fill-rule="nonzero"/>
</svg>
