<svg xmlns="http://www.w3.org/2000/svg" xmlns:xlink="http://www.w3.org/1999/xlink">

  <!-- ViewBox and Polygon taken from "Star.svg" -->
  <symbol id="icon_arrow" viewBox="0 0 32 32">

	

		<path id="Vector" d="M16 20.5L20.5 16L16 11.5M20.5 16L4 16M11.5 8.87354L11.5 8.80005C11.5 7.12012 11.5 6.28003 11.8271 5.63794C12.1152 5.07251 12.5723 4.61499 13.1377 4.3269C13.7803 4 14.6201 4 16.2998 4L23.2002 4C24.8799 4 25.7197 4 26.3604 4.3269C26.9258 4.61499 27.3848 5.07251 27.6729 5.63794C28 6.27856 28 7.11841 28 8.79541L28 23.2061C28 24.8831 28 25.7214 27.6729 26.3621C27.3848 26.9265 26.9258 27.3855 26.3604 27.6731C25.7197 28 24.8818 28 23.2041 28L16.2959 28C14.6182 28 13.7783 28 13.1377 27.6731C12.5732 27.3855 12.1143 26.9265 11.8271 26.3621C11.5 25.72 11.5 24.8799 11.5 23.2L11.5 23.125" stroke-opacity="1.000000" stroke-width="1.600000" stroke-linejoin="round"/>
	
  </symbol>

  <!-- ViewBox and Polygon taken from "Flower.svg" -->
  <symbol id="icon_bell" viewBox="0 0 36 30">
    <path d="M29.7246 20.9934C29.0312 19.7983 27.999 16.417 27.999 12.0005C27.999 9.34814 26.9463 6.80444 25.0703 4.92896C23.1953 3.05371 20.6514 2 17.999 2C15.3467 2 12.8027 3.05371 10.9277 4.92896C9.05273 6.80444 7.99902 9.34814 7.99902 12.0005C7.99902 16.4182 6.96582 19.7983 6.27246 20.9934C6.09473 21.2971 6.00098 21.6423 6 21.9939C5.99902 22.3457 6.09082 22.6914 6.26562 22.9966C6.44043 23.3015 6.69336 23.5549 6.99707 23.7314C7.30176 23.9077 7.64648 24.0007 7.99902 24.001L13.1006 24.001C13.3311 25.1299 13.9443 26.1445 14.8369 26.8733C15.7295 27.6021 16.8467 28 17.999 28C19.1514 28 20.2686 27.6021 21.1611 26.8733C22.0537 26.1445 22.667 25.1299 22.8984 24.001L27.999 24.001C28.3516 24.0005 28.6963 23.9072 29 23.731C29.3047 23.5544 29.5566 23.301 29.7314 22.9961C29.9062 22.6909 29.998 22.3452 29.9971 21.9937C29.9961 21.6421 29.9014 21.2971 29.7246 20.9934ZM17.999 26.001C17.3789 26.0007 16.7734 25.8083 16.2676 25.4502C15.7607 25.092 15.3779 24.5857 15.1719 24.001L20.8271 24.001C20.6201 24.5857 20.2373 25.092 19.7305 25.4502C19.2246 25.8083 18.6191 26.0007 17.999 26.001ZM7.99902 22.001C8.96094 20.3457 9.99902 16.5107 9.99902 12.0005C9.99902 9.87866 10.8418 7.84375 12.3418 6.34326C13.8428 4.84302 15.877 4 17.999 4C20.1211 4 22.1562 4.84302 23.6562 6.34326C25.1562 7.84375 25.999 9.87866 25.999 12.0005C25.999 16.5068 27.0342 20.342 27.999 22.001L7.99902 22.001Z" fill="#1F1F26" fill-opacity="1.000000" fill-rule="nonzero"/>
  </symbol>

  <!-- ViewBox and Polygon taken from "8 Point Star.svg" -->
  <symbol id="icon_person" viewBox="0 0 32 32">
    <path id="Vector" d="M16 20C11.582 20 8 16.4182 8 12C8 7.58179 11.582 4 16 4C20.418 4 24 7.58179 24 12C24 16.4182 20.418 20 16 20Z" stroke="#1F1F26" stroke-opacity="1.000000" stroke-width="2.000000"/>
	<path id="Vector" d="M3.875 27C5.10352 24.8713 6.87109 23.1038 8.99902 21.8748C11.1279 20.6458 13.542 19.9988 16 19.9988C18.458 19.9988 20.8721 20.6458 23.001 21.8748C25.1289 23.1038 26.8965 24.8713 28.125 27" stroke="#1F1F26" stroke-opacity="1.000000" stroke-width="2.000000" stroke-linejoin="round" stroke-linecap="round"/>
  </symbol>

</svg>