<svg width="17" height="16" viewBox="0 0 17 16" fill="none" xmlns="http://www.w3.org/2000/svg">
<path d="M15.3007 11.7557L9.83505 2.26379C9.69847 2.03124 9.50348 1.83843 9.26942 1.70445C9.03537 1.57048 8.77036 1.5 8.50067 1.5C8.23098 1.5 7.96597 1.57048 7.73192 1.70445C7.49786 1.83843 7.30288 2.03124 7.1663 2.26379L1.70067 11.7557C1.56926 11.9806 1.5 12.2364 1.5 12.4969C1.5 12.7574 1.56926 13.0132 1.70067 13.2382C1.8355 13.4721 2.03015 13.666 2.26465 13.7999C2.49914 13.9338 2.76504 14.0028 3.03505 14H13.9663C14.2361 14.0026 14.5017 13.9334 14.736 13.7996C14.9702 13.6657 15.1647 13.4719 15.2994 13.2382C15.431 13.0134 15.5005 12.7576 15.5007 12.4971C15.5009 12.2366 15.4319 11.9807 15.3007 11.7557ZM8.00067 6.50004C8.00067 6.36743 8.05335 6.24026 8.14712 6.14649C8.24089 6.05272 8.36806 6.00004 8.50067 6.00004C8.63328 6.00004 8.76046 6.05272 8.85422 6.14649C8.94799 6.24026 9.00067 6.36743 9.00067 6.50004V9.00004C9.00067 9.13265 8.94799 9.25983 8.85422 9.35359C8.76046 9.44736 8.63328 9.50004 8.50067 9.50004C8.36806 9.50004 8.24089 9.44736 8.14712 9.35359C8.05335 9.25983 8.00067 9.13265 8.00067 9.00004V6.50004ZM8.50067 12C8.35233 12 8.20733 11.9561 8.08399 11.8736C7.96066 11.7912 7.86453 11.6741 7.80776 11.5371C7.751 11.4 7.73614 11.2492 7.76508 11.1037C7.79402 10.9582 7.86545 10.8246 7.97034 10.7197C8.07523 10.6148 8.20887 10.5434 8.35435 10.5145C8.49984 10.4855 8.65064 10.5004 8.78768 10.5571C8.92473 10.6139 9.04186 10.71 9.12427 10.8334C9.20668 10.9567 9.25067 11.1017 9.25067 11.25C9.25067 11.449 9.17165 11.6397 9.031 11.7804C8.89035 11.921 8.69958 12 8.50067 12Z" fill="#E6674E"/>
</svg>
