<svg width="25" height="24" viewBox="0 0 25 24" fill="none" xmlns="http://www.w3.org/2000/svg">
<path fill-rule="evenodd" clip-rule="evenodd" d="M7.21195 3.96981C10.7303 3.65524 14.2696 3.65524 17.788 3.96981L19.306 4.10581C20.0408 4.17143 20.7321 4.48289 21.2681 4.98987C21.8041 5.49685 22.1536 6.16973 22.26 6.89981C22.7544 10.2818 22.7544 13.7178 22.26 17.0998C22.1534 17.8297 21.8038 18.5024 21.2678 19.0091C20.7318 19.5159 20.0407 19.8272 19.306 19.8928L17.788 20.0288C14.2696 20.3434 10.7303 20.3434 7.21195 20.0288L5.69395 19.8928C4.95923 19.8272 4.26806 19.5159 3.73207 19.0091C3.19608 18.5024 2.84656 17.8297 2.73995 17.0998C2.24554 13.7178 2.24554 10.2818 2.73995 6.89981C2.84635 6.16973 3.19578 5.49685 3.73179 4.98987C4.2678 4.48289 4.95909 4.17143 5.69395 4.10581L7.21195 3.96981ZM6.35595 6.83981C6.24171 6.7782 6.11343 6.7473 5.98367 6.75011C5.8539 6.75293 5.72708 6.78938 5.61562 6.85589C5.50416 6.92241 5.41187 7.01671 5.34778 7.12958C5.28368 7.24244 5.24997 7.37002 5.24995 7.49981V16.9998C5.24995 17.1987 5.32897 17.3895 5.46962 17.5301C5.61028 17.6708 5.80104 17.7498 5.99995 17.7498C6.19887 17.7498 6.38963 17.6708 6.53028 17.5301C6.67094 17.3895 6.74995 17.1987 6.74995 16.9998V8.75581L12.144 11.6598C12.366 11.7798 12.634 11.7798 12.856 11.6598L18.25 8.75581V16.9998C18.25 17.1987 18.329 17.3895 18.4696 17.5301C18.6103 17.6708 18.801 17.7498 19 17.7498C19.1989 17.7498 19.3896 17.6708 19.5303 17.5301C19.6709 17.3895 19.75 17.1987 19.75 16.9998V7.49981C19.7499 7.37002 19.7162 7.24244 19.6521 7.12958C19.588 7.01671 19.4957 6.92241 19.3843 6.85589C19.2728 6.78938 19.146 6.75293 19.0162 6.75011C18.8865 6.7473 18.7582 6.7782 18.644 6.83981L12.5 10.1478L6.35595 6.83981Z" fill="#656565"/>
</svg>
