<svg width="96" height="96" viewBox="0 0 96 96" fill="none" xmlns="http://www.w3.org/2000/svg">
<g clip-path="url(#clip0_5224_8289)">
<path d="M132.5 -37H-37.5V133H132.5V-37Z" fill="white"/>
<g opacity="0.1">
</g>
<path d="M74.2372 7.79663H66.0273C63.4941 7.79663 61.4404 9.85019 61.4404 12.3835V20.5934C61.4404 23.1267 63.4941 25.1804 66.0273 25.1804H74.2372C76.7705 25.1804 78.8242 23.1267 78.8242 20.5934V12.3835C78.8242 9.85019 76.7705 7.79663 74.2372 7.79663Z" fill="#414042"/>
<path d="M42.0872 25.6697H49.2965C52.2797 25.8393 55.1175 27.0145 57.3469 29.004L57.6173 29.3045C59.6171 31.5274 60.794 34.3689 60.9515 37.3549V44.5342C60.9515 45.7849 61.4484 46.9845 62.3329 47.8689C63.2173 48.7534 64.4169 49.2503 65.6677 49.2503H74.1086C75.3593 49.2503 76.5589 48.7534 77.4434 47.8689C78.3278 46.9845 78.8247 45.7849 78.8247 44.5342V36.0933C78.8247 34.8425 78.3278 33.643 77.4434 32.7585C76.5589 31.8741 75.3593 31.3772 74.1086 31.3772H66.9293C63.9434 31.2195 61.1018 30.0427 58.8788 28.0428L58.5785 27.7725C56.585 25.5456 55.409 22.7064 55.2442 19.722V12.5127C55.2442 11.262 54.7474 10.0624 53.8629 9.17797C52.9784 8.29354 51.7789 7.79663 50.5281 7.79663H42.0872C40.8363 7.79663 39.6369 8.29354 38.7524 9.17797C37.868 10.0624 37.3711 11.262 37.3711 12.5127V20.9537C37.3711 22.2044 37.868 23.4039 38.7524 24.2884C39.6369 25.1728 40.8363 25.6697 42.0872 25.6697Z" fill="#414042"/>
<path d="M75.4597 55.2235H68.3181C65.3454 55.0306 62.5287 53.7972 60.3434 51.7316L59.54 50.9119C57.559 48.6649 56.3931 45.7925 56.2371 42.7743V35.487C56.2292 34.2252 55.7345 33.0173 54.8601 32.125C53.9856 31.2327 52.8019 30.7279 51.5653 30.72H44.4237C41.4754 30.5934 38.6597 29.4355 36.4491 27.4408L35.6457 26.6209C33.6646 24.374 32.4989 21.5017 32.3427 18.4834V11.2266C32.3427 9.9623 31.8504 8.74972 30.9744 7.85566C30.0983 6.96173 28.91 6.45947 27.671 6.45947H19.3094C18.0705 6.45947 16.8821 6.96173 16.0061 7.85566C15.1299 8.74972 14.6377 9.9623 14.6377 11.2266V19.7587C14.6377 21.0231 15.1299 22.2357 16.0061 23.1296C16.8821 24.0236 18.0705 24.5259 19.3094 24.5259H26.4212C29.4242 24.666 32.2858 25.8683 34.515 27.9266L35.3184 28.7464C37.2932 30.9973 38.458 33.8673 38.6213 36.8838V44.1712C38.629 45.433 39.1238 46.6409 39.9982 47.5331C40.8726 48.4254 42.0565 48.9302 43.293 48.9382H50.4345C53.3597 49.125 56.1376 50.3123 58.3201 52.3085L59.1235 53.1284C61.0982 55.3793 62.2631 58.2494 62.4264 61.2658V68.5531C62.4341 69.8151 62.9289 71.0228 63.8033 71.9152C64.6777 72.8075 65.8615 73.3121 67.0981 73.3202H75.4893C76.726 73.3121 77.9098 72.8075 78.7842 71.9152C79.6586 71.0228 80.1534 69.8151 80.1612 68.5531V59.9906C80.1533 58.7235 79.6545 57.511 78.7737 56.6178C77.8929 55.7247 76.7014 55.2234 75.4597 55.2235Z" fill="#414042"/>
<path d="M28.4189 54.5991H19.5775C16.8493 54.5991 14.6377 56.6528 14.6377 59.1862V67.396C14.6377 69.9293 16.8493 71.9829 19.5775 71.9829H28.4189C31.1471 71.9829 33.3587 69.9293 33.3587 67.396V59.1862C33.3587 56.6528 31.1471 54.5991 28.4189 54.5991Z" fill="#414042"/>
<path d="M51.3752 54.1097H44.1959C41.21 53.9521 38.3684 52.7753 36.1454 50.7755L35.8451 50.5051C33.8389 48.2625 32.6621 45.3999 32.5108 42.3947V35.1853C32.4959 33.9706 32.0129 32.8084 31.1623 31.941C30.3117 31.0737 29.1592 30.5679 27.9448 30.5293H19.3538C18.1029 30.5293 16.9035 31.0262 16.019 31.9106C15.1346 32.7951 14.6377 33.9946 14.6377 35.2454V43.6863C14.6377 44.9371 15.1346 46.1366 16.019 47.0212C16.9035 47.9056 18.1029 48.4024 19.3538 48.4024H26.5631C29.5463 48.5719 32.3841 49.7472 34.6135 51.7367L34.8839 52.037C36.8837 54.26 38.0606 57.1016 38.2181 60.0875V67.2667C38.2181 67.8886 38.3411 68.5043 38.58 69.0784C38.8189 69.6526 39.169 70.1738 39.6102 70.6121C40.0512 71.0505 40.5747 71.3972 41.1504 71.6324C41.726 71.8677 42.3425 71.9868 42.9643 71.9828H51.3752C52.6259 71.9828 53.8255 71.486 54.71 70.6016C55.5944 69.7172 56.0913 68.5175 56.0913 67.2667V58.8258C56.0913 57.5751 55.5944 56.3755 54.71 55.4911C53.8255 54.6066 52.6259 54.1097 51.3752 54.1097Z" fill="#414042"/>
</g>
<defs>
<clipPath id="clip0_5224_8289">
<rect width="96" height="96" fill="white"/>
</clipPath>
</defs>
</svg>
