<svg width="220" height="120" viewBox="0 0 220 120" fill="none" xmlns="http://www.w3.org/2000/svg">
<path fill-rule="evenodd" clip-rule="evenodd" d="M48 89H139C139.515 89 140.017 88.9444 140.5 88.8389C140.983 88.9444 141.485 89 142 89H194C197.866 89 201 85.866 201 82C201 78.134 197.866 75 194 75H188C184.134 75 181 71.866 181 68C181 64.134 184.134 61 188 61H207C210.866 61 214 57.866 214 54C214 50.134 210.866 47 207 47H185C188.866 47 192 43.866 192 40C192 36.134 188.866 33 185 33H121C124.866 33 128 29.866 128 26C128 22.134 124.866 19 121 19H64C60.134 19 57 22.134 57 26C57 29.866 60.134 33 64 33H24C20.134 33 17 36.134 17 40C17 43.866 20.134 47 24 47H49C52.866 47 56 50.134 56 54C56 57.866 52.866 61 49 61H9C5.13401 61 2 64.134 2 68C2 71.866 5.13401 75 9 75H48C44.134 75 41 78.134 41 82C41 85.866 44.134 89 48 89ZM211 89C214.866 89 218 85.866 218 82C218 78.134 214.866 75 211 75C207.134 75 204 78.134 204 82C204 85.866 207.134 89 211 89Z" fill="#F4F4FF"/>
<path d="M161.5 2V8" stroke="#6168E4" stroke-width="2.5" stroke-linecap="round" stroke-linejoin="round"/>
<path d="M161.5 16V22" stroke="#6168E4" stroke-width="2.5" stroke-linecap="round" stroke-linejoin="round"/>
<path d="M151.5 12H157.5" stroke="#6168E4" stroke-width="2.5" stroke-linecap="round" stroke-linejoin="round"/>
<path d="M165.5 12H171.5" stroke="#6168E4" stroke-width="2.5" stroke-linecap="round" stroke-linejoin="round"/>
<path d="M74.5 102V106" stroke="#6168E4" stroke-width="2.5" stroke-linecap="round" stroke-linejoin="round"/>
<path d="M74.5 114V118" stroke="#6168E4" stroke-width="2.5" stroke-linecap="round" stroke-linejoin="round"/>
<path d="M66.5 110H70.5" stroke="#6168E4" stroke-width="2.5" stroke-linecap="round" stroke-linejoin="round"/>
<path d="M78.5 110H82.5" stroke="#6168E4" stroke-width="2.5" stroke-linecap="round" stroke-linejoin="round"/>
<path fill-rule="evenodd" clip-rule="evenodd" d="M145.711 86.1263C147.102 84.4232 148.352 82.6421 149.461 80.7987C151.901 76.7443 153.66 72.3884 154.734 67.8975C155.821 63.3555 156.209 58.6755 155.894 54.0296C155.62 49.9756 154.811 45.9475 153.465 42.0598C152.131 38.2028 150.268 34.484 147.875 31.015C146.45 28.9479 144.836 26.9696 143.034 25.1036C140.388 22.364 137.486 20.0219 134.402 18.0787C131.089 15.9908 127.566 14.3634 123.926 13.1984C119.368 11.7393 114.628 11.0054 109.886 11C106.197 10.9959 102.507 11.4328 98.9025 12.3125C94.8447 13.3028 90.8953 14.8543 87.1766 16.9692C83.9076 18.8284 80.817 21.123 77.988 23.8547C74.4328 27.2875 71.553 31.1572 69.3512 35.2985C67.1956 39.3531 65.6899 43.6682 64.8366 48.0887C63.9574 52.6429 63.7706 57.3091 64.2789 61.9178C64.9378 67.8911 66.7643 73.7677 69.7644 79.1785C71.684 82.6407 74.0842 85.9123 76.9663 88.8964C81.5416 93.6338 86.8833 97.1826 92.6045 99.5354C99.5619 102.397 107.081 103.489 114.465 102.8C120.662 102.221 126.765 100.387 132.361 97.2902" fill="white"/>
<path d="M145.711 86.1263C147.102 84.4232 148.352 82.6421 149.461 80.7987C151.901 76.7443 153.66 72.3884 154.734 67.8975C155.821 63.3555 156.209 58.6755 155.894 54.0296C155.62 49.9756 154.811 45.9475 153.465 42.0598C152.131 38.2028 150.268 34.484 147.875 31.015C146.45 28.9479 144.836 26.9696 143.034 25.1036C140.388 22.364 137.486 20.0219 134.402 18.0787C131.089 15.9908 127.566 14.3634 123.926 13.1984C119.368 11.7393 114.628 11.0054 109.886 11C106.197 10.9959 102.507 11.4328 98.9025 12.3125C94.8447 13.3028 90.8953 14.8543 87.1766 16.9692C83.9076 18.8284 80.817 21.123 77.988 23.8547C74.4328 27.2875 71.553 31.1572 69.3512 35.2985C67.1956 39.3531 65.6899 43.6682 64.8366 48.0887C63.9574 52.6429 63.7706 57.3091 64.2789 61.9178C64.9378 67.8911 66.7643 73.7677 69.7644 79.1785C71.684 82.6407 74.0842 85.9123 76.9663 88.8964C81.5416 93.6338 86.8833 97.1826 92.6045 99.5354C99.5619 102.397 107.081 103.489 114.465 102.8C120.662 102.221 126.765 100.387 132.361 97.2902" stroke="#6168E4" stroke-width="2.5" stroke-linecap="round" stroke-linejoin="round"/>
<path fill-rule="evenodd" clip-rule="evenodd" d="M135.701 95.3777C138.607 93.5076 141.191 91.1744 142.872 89.2908L135.701 95.3777Z" fill="white"/>
<path d="M135.701 95.3777C138.607 93.5076 141.191 91.1744 142.872 89.2908" stroke="#6168E4" stroke-width="2.5" stroke-linecap="round"/>
<path d="M152 59.617C151.714 59.6221 151.427 59.6246 151.14 59.6246C125.886 59.6246 105.209 39.9362 103.476 15C83.3752 18.1706 68 35.6526 68 56.7434C68 80.0811 86.8255 99 110.048 99C132.309 99 150.53 81.6145 152 59.617Z" fill="#F4F4FF"/>
<path fill-rule="evenodd" clip-rule="evenodd" d="M94.0233 55.3729C92.8001 54.2433 90.9025 54.33 89.785 55.5666C88.6676 56.8032 88.7534 58.7214 89.9767 59.8511L104.096 72.889C105.808 74.4704 108.465 74.349 110.029 72.6178C110.095 72.5442 110.095 72.5442 110.158 72.4687L130.307 47.9716C131.366 46.6837 131.192 44.7716 129.918 43.7008C128.644 42.63 126.752 42.806 125.693 44.0939L106.75 67.125L94.0233 55.3729Z" fill="white" stroke="#6168E4" stroke-width="2.5" stroke-linecap="round"/>
<path fill-rule="evenodd" clip-rule="evenodd" d="M95.8243 19.4127C93.8741 20.1444 91.9691 21.0334 90.1288 22.0802C87.269 23.7069 84.5652 25.7145 82.0903 28.1045C81.0758 29.0842 80.1241 30.1046 79.2354 31.1607M76.4854 34.8381C75.7788 35.906 75.1284 37.0007 74.5345 38.1179C74.0959 38.9431 73.688 39.7807 73.3109 40.6288" fill="white"/>
<path d="M96.2633 20.5831C96.9097 20.3406 97.2371 19.62 96.9946 18.9737C96.7521 18.3273 96.0316 17.9999 95.3852 18.2424L96.2633 20.5831ZM90.1288 22.0802L90.7468 23.1667L90.1288 22.0802ZM82.0903 28.1045L81.222 27.2054L82.0903 28.1045ZM78.279 30.3558C77.8345 30.884 77.9023 31.6726 78.4306 32.1171C78.9588 32.5616 79.7473 32.4937 80.1918 31.9655L78.279 30.3558ZM77.5278 35.528C77.9088 34.9523 77.751 34.1767 77.1752 33.7957C76.5995 33.4147 75.824 33.5726 75.443 34.1483L77.5278 35.528ZM74.5345 38.1179L75.6383 38.7047L75.6383 38.7047L74.5345 38.1179ZM72.1687 40.1209C71.8882 40.7518 72.1722 41.4905 72.803 41.771C73.4338 42.0515 74.1726 41.7674 74.4531 41.1366L72.1687 40.1209ZM95.3852 18.2424C93.3738 18.997 91.409 19.9139 89.5108 20.9937L90.7468 23.1667C92.5293 22.1529 94.3743 21.2918 96.2633 20.5831L95.3852 18.2424ZM89.5108 20.9937C86.5608 22.6716 83.7728 24.742 81.222 27.2054L82.9586 29.0037C85.3576 26.687 87.9772 24.7421 90.7468 23.1667L89.5108 20.9937ZM81.222 27.2054C80.1764 28.215 79.1954 29.2669 78.279 30.3558L80.1918 31.9655C81.0528 30.9424 81.9751 29.9535 82.9586 29.0037L81.222 27.2054ZM75.443 34.1483C74.7141 35.2497 74.0434 36.3788 73.4308 37.5312L75.6383 38.7047C76.2135 37.6225 76.8434 36.5623 77.5278 35.528L75.443 34.1483ZM73.4308 37.5312C72.9783 38.3824 72.5576 39.2462 72.1687 40.1209L74.4531 41.1366C74.8183 40.3151 75.2134 39.5039 75.6383 38.7047L73.4308 37.5312Z" fill="#6168E4"/>
</svg>
