<svg width="32.000000" height="32.000000" viewBox="0 0 32 32" fill="none" xmlns="http://www.w3.org/2000/svg" xmlns:xlink="http://www.w3.org/1999/xlink">
	<desc>
			Created with Pixso.
	</desc>
	<defs>
		<clipPath id="clip30_6380">
			<rect id="Icon / Arrow Out" width="32.000000" height="32.000000" fill="white" fill-opacity="0"/>
		</clipPath>
	</defs>
	<rect id="Icon / Arrow Out" width="32.000000" height="32.000000" fill="#FFFFFF" fill-opacity="0"/>
	<g clip-path="url(#clip30_6380)">
		<path id="Vector" d="M16 20.5L20.5 16L16 11.5M20.5 16L4 16M11.5 8.87354L11.5 8.80005C11.5 7.12012 11.5 6.28003 11.8271 5.63794C12.1152 5.07251 12.5723 4.61499 13.1377 4.3269C13.7803 4 14.6201 4 16.2998 4L23.2002 4C24.8799 4 25.7197 4 26.3604 4.3269C26.9258 4.61499 27.3848 5.07251 27.6729 5.63794C28 6.27856 28 7.11841 28 8.79541L28 23.2061C28 24.8831 28 25.7214 27.6729 26.3621C27.3848 26.9265 26.9258 27.3855 26.3604 27.6731C25.7197 28 24.8818 28 23.2041 28L16.2959 28C14.6182 28 13.7783 28 13.1377 27.6731C12.5732 27.3855 12.1143 26.9265 11.8271 26.3621C11.5 25.72 11.5 24.8799 11.5 23.2L11.5 23.125" stroke="#1F1F26" stroke-opacity="1.000000" stroke-width="1.600000" stroke-linejoin="round"/>
	</g>
</svg>
